<svg xmlns="http://www.w3.org/2000/svg" xmlns:xlink="http://www.w3.org/1999/xlink" width="500" zoomAndPan="magnify" viewBox="0 0 375 374.999991" height="500" preserveAspectRatio="xMidYMid meet" version="1.0"><defs><g/><clipPath id="f9754c97d0"><path d="M 96 109 L 282 109 L 282 265 L 96 265 Z M 96 109 " clip-rule="nonzero"/></clipPath><clipPath id="4c8719d6fc"><path d="M 96.300781 195.375 L 261.242188 109.835938 L 314.011719 211.585938 L 149.066406 297.125 Z M 96.300781 195.375 " clip-rule="nonzero"/></clipPath><clipPath id="cff17e05f8"><path d="M 63.550781 132.222656 L 228.492188 46.6875 L 314.03125 211.628906 L 149.089844 297.167969 Z M 63.550781 132.222656 " clip-rule="nonzero"/></clipPath><clipPath id="720e939be9"><path d="M 100 113 L 275 113 L 275 259 L 100 259 Z M 100 113 " clip-rule="nonzero"/></clipPath><clipPath id="39fd25c5b4"><path d="M 100.882812 193.378906 L 255.113281 113.394531 L 304.550781 208.71875 L 150.316406 288.703125 Z M 100.882812 193.378906 " clip-rule="nonzero"/></clipPath><clipPath id="4408210369"><path d="M 70.066406 133.957031 L 224.300781 53.972656 L 304.285156 208.207031 L 150.050781 288.191406 Z M 70.066406 133.957031 " clip-rule="nonzero"/></clipPath><clipPath id="effc8b13e8"><path d="M 112 120 L 268 120 L 268 251.089844 L 112 251.089844 Z M 112 120 " clip-rule="nonzero"/></clipPath><clipPath id="5267413a21"><path d="M 92 42.359375 L 205 42.359375 L 205 180 L 92 180 Z M 92 42.359375 " clip-rule="nonzero"/></clipPath><clipPath id="25b0203e27"><path d="M 236.28125 24.726562 L 332.894531 24.726562 L 332.894531 121.339844 L 236.28125 121.339844 Z M 236.28125 24.726562 " clip-rule="nonzero"/></clipPath><clipPath id="fc0b26d145"><path d="M 284.589844 24.726562 C 257.910156 24.726562 236.28125 46.355469 236.28125 73.035156 C 236.28125 99.710938 257.910156 121.339844 284.589844 121.339844 C 311.265625 121.339844 332.894531 99.710938 332.894531 73.035156 C 332.894531 46.355469 311.265625 24.726562 284.589844 24.726562 Z M 284.589844 24.726562 " clip-rule="nonzero"/></clipPath><clipPath id="c32cdef46e"><path d="M 226 81 L 255 81 L 255 121 L 226 121 Z M 226 81 " clip-rule="nonzero"/></clipPath><clipPath id="541c050da0"><path d="M 212.417969 100.523438 L 294.144531 42.652344 L 331.097656 94.839844 L 249.371094 152.710938 Z M 212.417969 100.523438 " clip-rule="nonzero"/></clipPath><clipPath id="e7b8bc8cae"><path d="M 212.417969 100.523438 L 294.144531 42.652344 L 331.097656 94.839844 L 249.371094 152.710938 Z M 212.417969 100.523438 " clip-rule="nonzero"/></clipPath><clipPath id="241d678b76"><path d="M 253 82 L 268 82 L 268 102 L 253 102 Z M 253 82 " clip-rule="nonzero"/></clipPath><clipPath id="3a32d52ccf"><path d="M 212.417969 100.523438 L 294.144531 42.652344 L 331.097656 94.839844 L 249.371094 152.710938 Z M 212.417969 100.523438 " clip-rule="nonzero"/></clipPath><clipPath id="598c2c52a4"><path d="M 212.417969 100.523438 L 294.144531 42.652344 L 331.097656 94.839844 L 249.371094 152.710938 Z M 212.417969 100.523438 " clip-rule="nonzero"/></clipPath><clipPath id="10b78ac1b6"><path d="M 244 51 L 301 51 L 301 119 L 244 119 Z M 244 51 " clip-rule="nonzero"/></clipPath><clipPath id="662728ca6f"><path d="M 212.417969 100.523438 L 294.144531 42.652344 L 331.097656 94.839844 L 249.371094 152.710938 Z M 212.417969 100.523438 " clip-rule="nonzero"/></clipPath><clipPath id="e6110d4f6b"><path d="M 212.417969 100.523438 L 294.144531 42.652344 L 331.097656 94.839844 L 249.371094 152.710938 Z M 212.417969 100.523438 " clip-rule="nonzero"/></clipPath><clipPath id="7ae2376dd2"><path d="M 256 103 L 287 103 L 287 148 L 256 148 Z M 256 103 " clip-rule="nonzero"/></clipPath><clipPath id="525f85621b"><path d="M 212.417969 100.523438 L 294.144531 42.652344 L 331.097656 94.839844 L 249.371094 152.710938 Z M 212.417969 100.523438 " clip-rule="nonzero"/></clipPath><clipPath id="af9959fce8"><path d="M 212.417969 100.523438 L 294.144531 42.652344 L 331.097656 94.839844 L 249.371094 152.710938 Z M 212.417969 100.523438 " clip-rule="nonzero"/></clipPath><clipPath id="cb9a38c0bb"><path d="M 265 90 L 282 90 L 282 113 L 265 113 Z M 265 90 " clip-rule="nonzero"/></clipPath><clipPath id="da9316e2e1"><path d="M 212.417969 100.523438 L 294.144531 42.652344 L 331.097656 94.839844 L 249.371094 152.710938 Z M 212.417969 100.523438 " clip-rule="nonzero"/></clipPath><clipPath id="fe0abd8c49"><path d="M 212.417969 100.523438 L 294.144531 42.652344 L 331.097656 94.839844 L 249.371094 152.710938 Z M 212.417969 100.523438 " clip-rule="nonzero"/></clipPath></defs><rect x="-37.5" width="450" fill="#ffffff" y="-37.499999" height="449.999989" fill-opacity="1"/><rect x="-37.5" width="450" fill="#ffffff" y="-37.499999" height="449.999989" fill-opacity="1"/><g clip-path="url(#f9754c97d0)"><g clip-path="url(#4c8719d6fc)"><g clip-path="url(#cff17e05f8)"><path fill="#f68712" d="M 231.050781 254.027344 C 185.726562 277.53125 129.695312 259.765625 106.191406 214.445312 C 82.6875 169.121094 100.449219 113.089844 145.769531 89.585938 C 191.09375 66.082031 247.125 83.84375 270.632812 129.167969 C 294.136719 174.488281 276.371094 230.523438 231.050781 254.027344 Z M 146.402344 90.800781 C 101.726562 113.96875 84.238281 169.140625 107.40625 213.816406 C 130.574219 258.488281 185.746094 275.980469 230.417969 252.8125 C 275.09375 229.644531 292.582031 174.472656 269.414062 129.796875 C 246.246094 85.121094 191.074219 67.632812 146.402344 90.800781 Z M 146.402344 90.800781 " fill-opacity="1" fill-rule="nonzero"/></g></g></g><g clip-path="url(#720e939be9)"><g clip-path="url(#39fd25c5b4)"><g clip-path="url(#4408210369)"><path fill="#51ade5" d="M 227.664062 248.558594 C 185.019531 270.671875 132.300781 253.960938 110.183594 211.316406 C 88.070312 168.675781 104.785156 115.957031 147.425781 93.839844 C 190.070312 71.726562 242.789062 88.4375 264.902344 131.082031 C 287.019531 173.722656 270.304688 226.445312 227.664062 248.558594 Z M 148.019531 94.984375 C 105.984375 116.78125 89.53125 168.691406 111.328125 210.726562 C 133.125 252.757812 185.035156 269.214844 227.070312 247.414062 C 269.101562 225.617188 285.558594 173.707031 263.761719 131.675781 C 241.960938 89.640625 190.050781 73.1875 148.019531 94.984375 Z M 148.019531 94.984375 " fill-opacity="1" fill-rule="nonzero"/></g></g></g><g clip-path="url(#effc8b13e8)"><path fill="#51ade5" d="M 166.578125 209.917969 C 174.03125 208.9375 181.128906 202.261719 181.261719 202.140625 C 181.246094 202.1875 181.496094 202.664062 188.199219 207.261719 C 196.253906 212.78125 203.5625 204.539062 203.5625 204.539062 C 214.527344 211.378906 222.054688 208.144531 222.054688 208.144531 C 215.386719 212.484375 205.898438 209.613281 205.898438 209.613281 C 191.371094 217.816406 181.550781 208 181.550781 208 C 175.449219 210.917969 166.578125 209.917969 166.578125 209.917969 Z M 112.277344 203.460938 C 116.917969 213.621094 123.574219 222.65625 131.738281 230.054688 C 155.167969 226.289062 164.222656 215.597656 164.222656 215.597656 C 164.222656 215.597656 171.011719 227.433594 187.058594 227.320312 C 203.105469 227.207031 206.644531 215.597656 206.644531 215.597656 C 206.644531 215.597656 212.363281 223.097656 227.179688 226.742188 C 236.695312 229.082031 247.855469 223.152344 251.113281 218.636719 L 251.117188 218.628906 C 245.421875 217.226562 241.425781 215.738281 241.425781 215.738281 C 230.003906 222.621094 217.988281 217.613281 217.988281 217.613281 C 230.039062 219.785156 240.054688 204.710938 240.054688 204.710938 C 240.054688 204.710938 244.40625 210.269531 254.0625 214.457031 C 262.546875 201.582031 267.488281 186.152344 267.488281 169.566406 C 267.488281 151.253906 261.464844 134.351562 251.296875 120.738281 C 249.90625 121.726562 248.292969 123.046875 246.257812 125.25 C 229.617188 143.25 205.84375 160.996094 187.285156 172.628906 C 161.90625 188.539062 135.277344 198.855469 112.277344 203.460938 Z M 133.480469 231.585938 C 147.671875 243.738281 166.085938 251.078125 186.214844 251.078125 C 203.832031 251.078125 220.140625 245.453125 233.457031 235.898438 C 219.257812 236.242188 209.335938 228.140625 209.335938 228.140625 C 187.097656 244.136719 164.222656 227.433594 164.222656 227.433594 C 148.394531 231.863281 138.714844 232.109375 133.480469 231.585938 " fill-opacity="1" fill-rule="nonzero"/></g><path fill="#3871c1" d="M 187.285156 172.628906 C 205.84375 160.996094 229.617188 143.25 246.257812 125.25 C 248.292969 123.046875 249.90625 121.726562 251.296875 120.738281 C 251.683594 121.261719 252.066406 121.785156 252.441406 122.316406 C 242.554688 137.585938 223.414062 163.703125 196.316406 185.175781 C 172.285156 204.214844 147.535156 217.871094 126.488281 224.847656 C 120.695312 218.554688 115.878906 211.347656 112.277344 203.460938 C 135.277344 198.855469 161.90625 188.539062 187.285156 172.628906 " fill-opacity="1" fill-rule="nonzero"/><path fill="#f68712" d="M 243.257812 111.507812 C 234.597656 120.988281 218.472656 136.71875 195.816406 150.828125 C 176.511719 162.847656 156.363281 171.890625 138.808594 176.710938 C 135.105469 177.722656 131.515625 178.550781 128.078125 179.179688 C 122.890625 180.128906 118.039062 180.625 113.632812 180.625 C 110.640625 180.625 107.949219 180.394531 105.59375 179.949219 C 105.160156 176.550781 104.9375 173.085938 104.9375 169.566406 C 104.9375 139.949219 120.691406 114.019531 144.25 99.75 C 151.5 95.355469 159.496094 92.066406 167.996094 90.113281 C 168.042969 90.101562 168.082031 90.089844 168.128906 90.082031 C 170.339844 89.578125 172.585938 89.164062 174.859375 88.847656 C 175.175781 88.800781 175.492188 88.761719 175.808594 88.71875 C 178.058594 88.429688 180.332031 88.234375 182.636719 88.136719 C 182.785156 88.128906 182.933594 88.121094 183.082031 88.117188 C 184.121094 88.078125 185.164062 88.058594 186.214844 88.058594 C 190.34375 88.058594 194.402344 88.363281 198.367188 88.964844 C 215.738281 91.574219 231.3125 99.703125 243.257812 111.507812 " fill-opacity="1" fill-rule="nonzero"/><path fill="#2c3892" d="M 286.800781 77.625 C 293.109375 67.925781 296.519531 59.3125 294.484375 57.921875 C 292.453125 56.53125 285.699219 62.855469 278.996094 72.289062 L 253.242188 72.484375 L 249.117188 78.546875 L 269.308594 87.410156 C 266.710938 91.710938 264.019531 96.3125 261.664062 100.554688 L 248.5 99.863281 L 246.523438 102.765625 L 257.785156 107.828125 C 257.585938 108.226562 237.285156 135.308594 200.417969 158.261719 C 150.554688 189.3125 100.355469 198.703125 88.28125 179.207031 C 79.910156 165.699219 92.046875 141.871094 116.878906 118.171875 C 77.152344 149.039062 55.242188 183.667969 66.390625 201.660156 C 79.675781 223.109375 135.007812 212.941406 189.769531 178.613281 C 234.054688 150.855469 261.417969 110.53125 261.539062 110.394531 L 266.28125 116.996094 L 268.257812 114.09375 L 266.878906 104.125 C 269.957031 100.375 273.25 96.183594 276.292969 92.1875 L 280.789062 105.960938 L 284.914062 99.898438 L 286.800781 77.625 " fill-opacity="1" fill-rule="nonzero"/><g clip-path="url(#5267413a21)"><path fill="#24265d" d="M 185.222656 89.871094 C 187.816406 92.113281 190.96875 93.585938 194.332031 94.238281 C 197.894531 94.925781 201.222656 96.007812 204.886719 97.753906 C 204.886719 97.753906 202.664062 93.542969 198.367188 88.964844 C 191.953125 82.125 180.902344 74.464844 165.703125 78.773438 C 165.921875 78.632812 166.148438 78.488281 166.375 78.347656 C 165.28125 77.910156 164.007812 77.554688 162.570312 77.394531 C 162.570312 77.394531 163.328125 77.164062 164.574219 77.152344 C 166.929688 77.125 169.246094 76.546875 171.304688 75.40625 L 171.375 75.367188 C 170.132812 74.796875 169.453125 73.847656 167.699219 73.648438 C 167.699219 73.648438 168.710938 73.347656 170.316406 73.421875 C 172.984375 73.542969 175.644531 73.046875 178.046875 71.886719 C 178.183594 71.820312 178.316406 71.753906 178.453125 71.691406 C 177.105469 70.992188 175.382812 70.363281 173.324219 70.132812 C 173.324219 70.132812 174.746094 69.660156 176.730469 69.667969 C 180.675781 69.6875 184.578125 68.875 188.238281 67.398438 C 188.394531 67.335938 188.539062 67.277344 188.671875 67.222656 C 185.460938 66.261719 181.152344 65.289062 179.070312 65.058594 C 179.070312 65.058594 189.324219 63.984375 196.894531 64.742188 C 196.894531 64.742188 171.339844 47.0625 156.914062 79.304688 C 159.308594 71.253906 160.011719 57.238281 147.261719 48.519531 C 141.277344 44.429688 133.066406 42.355469 133.066406 42.355469 C 135.335938 44.59375 146.507812 57.835938 147.5 59.859375 C 147.417969 59.796875 144.667969 57.757812 141.441406 56.398438 C 141.492188 56.550781 141.542969 56.703125 141.589844 56.859375 C 142.464844 59.664062 147.746094 66.125 148.351562 67.359375 C 148.351562 67.359375 146.128906 65.699219 143.320312 64.359375 C 143.976562 68.425781 145.859375 72.785156 146.027344 76.457031 C 133.164062 51.359375 105.066406 59.15625 105.066406 59.15625 C 114.308594 60.144531 126.300781 63.984375 126.300781 63.984375 C 123.753906 63.742188 118.359375 63.828125 114.28125 64.175781 C 114.417969 64.269531 114.5625 64.363281 114.714844 64.464844 C 118.75 67.15625 123.242188 69.113281 127.988281 70.089844 C 130.347656 70.578125 131.910156 71.488281 131.910156 71.488281 C 129.390625 71.25 127.175781 71.574219 125.390625 72.070312 L 125.605469 72.230469 C 128.300781 74.285156 131.46875 75.617188 134.808594 76.1875 C 136.675781 76.507812 137.761719 77.097656 137.761719 77.097656 C 135.617188 76.894531 134.570312 77.859375 132.941406 78.234375 C 133.015625 78.296875 133.085938 78.355469 133.15625 78.417969 C 133.742188 78.921875 134.355469 79.378906 135.003906 79.792969 C 101.394531 68.894531 92.644531 93.296875 92.644531 93.296875 C 100.195312 88.027344 111.617188 83.097656 111.839844 83.003906 C 109.757812 84.492188 105.738281 88.101562 102.882812 91.042969 C 102.910156 91.039062 102.9375 91.035156 102.964844 91.03125 C 108.035156 90.355469 112.921875 88.71875 117.449219 86.324219 C 119.394531 85.292969 120.984375 84.992188 120.984375 84.992188 C 118.921875 86.464844 117.460938 88.164062 116.4375 89.710938 C 116.480469 89.707031 116.523438 89.703125 116.570312 89.703125 C 120.007812 89.484375 123.324219 88.402344 126.277344 86.621094 C 127.828125 85.683594 128.996094 85.40625 129.066406 85.390625 C 127.316406 86.644531 127.152344 88.066406 126.167969 89.410156 L 126.234375 89.410156 C 129.082031 89.398438 131.890625 88.695312 134.382812 87.3125 C 135.726562 86.5625 136.699219 86.335938 136.757812 86.324219 C 135.324219 87.351562 134.175781 88.488281 133.265625 89.609375 C 134.609375 89.679688 135.886719 89.765625 137.101562 89.863281 C 118.566406 94.4375 118.675781 115.992188 118.675781 115.992188 C 119.769531 113.6875 121.183594 111.691406 122.804688 109.953125 C 123.605469 105.722656 125.300781 102.414062 125.300781 102.414062 C 124.925781 104.535156 125.726562 109.421875 125.742188 109.410156 C 128.410156 107.0625 129.546875 102.804688 130.925781 99.527344 C 131.28125 98.679688 131.53125 98.191406 131.53125 98.191406 C 131.167969 100.257812 130.996094 102.105469 130.953125 103.742188 C 130.972656 103.730469 130.996094 103.71875 131.015625 103.707031 C 134.527344 101.742188 137.332031 98.710938 138.941406 95.019531 C 139.210938 94.398438 138.824219 98.3125 138.808594 100.058594 C 143.566406 95.660156 146.503906 96.898438 146.503906 96.898438 C 145.796875 97.738281 145.039062 98.6875 144.25 99.75 C 135.652344 111.304688 123.140625 136.144531 128.078125 179.179688 C 131.515625 178.550781 135.105469 177.722656 138.808594 176.710938 C 134.777344 159.859375 129.976562 125.199219 149.609375 99.460938 C 149.613281 99.652344 150.332031 98.304688 150.960938 97.621094 C 151.078125 97.71875 149.691406 103.550781 149.605469 105.984375 L 149.605469 106.039062 C 150.761719 105.242188 151.957031 105.140625 153.058594 103.695312 C 153.042969 103.753906 152.78125 104.730469 151.953125 106.019531 C 150.378906 108.46875 149.386719 111.246094 149.113281 114.148438 C 149.109375 114.183594 149.109375 114.21875 149.105469 114.253906 C 150.425781 113.429688 151.894531 112.238281 153.183594 110.535156 C 153.167969 110.617188 152.863281 111.921875 151.972656 113.492188 C 149.84375 117.25 148.347656 121.335938 147.648438 125.601562 C 147.644531 125.625 147.640625 125.648438 147.640625 125.667969 C 150.183594 123.335938 153.316406 120.03125 154.621094 118.308594 C 154.53125 118.503906 150.097656 128.019531 145.480469 134.265625 C 145.480469 134.265625 166.144531 125.121094 159.34375 98.980469 C 160.328125 102.90625 162.621094 106.375 165.847656 108.808594 C 165.871094 108.828125 165.898438 108.847656 165.921875 108.867188 C 166.28125 107.425781 166.417969 103.636719 166.484375 101.84375 C 166.484375 101.84375 170.644531 106.878906 172.328125 114.066406 L 172.375 114.109375 C 172.710938 112.722656 173.148438 109 173.210938 107.296875 C 173.210938 107.296875 176.285156 113.5625 181.332031 127.132812 C 181.332031 127.132812 187.546875 103.785156 169.660156 91.105469 C 172.035156 92.339844 174.683594 92.972656 177.375 92.953125 L 177.449219 92.953125 C 177.050781 92.023438 174.875 89.542969 174.546875 89.078125 C 174.546875 89.078125 182.4375 92.957031 185.664062 93.1875 L 185.753906 93.191406 C 185.265625 92.085938 183.003906 88.582031 182.855469 88.367188 C 182.855469 88.367188 184.417969 89.175781 185.222656 89.871094 " fill-opacity="1" fill-rule="nonzero"/></g><g clip-path="url(#25b0203e27)"><g clip-path="url(#fc0b26d145)"><path fill="#ffffff" d="M 236.28125 24.726562 L 332.894531 24.726562 L 332.894531 121.339844 L 236.28125 121.339844 Z M 236.28125 24.726562 " fill-opacity="1" fill-rule="nonzero"/></g></g><g clip-path="url(#c32cdef46e)"><g clip-path="url(#541c050da0)"><g clip-path="url(#e7b8bc8cae)"><path fill="#2c3892" d="M 226.292969 120.058594 L 254.726562 81.90625 L 252.738281 81.734375 Z M 226.292969 120.058594 " fill-opacity="1" fill-rule="nonzero"/></g></g></g><g clip-path="url(#241d678b76)"><g clip-path="url(#3a32d52ccf)"><g clip-path="url(#598c2c52a4)"><path fill="#2c3892" d="M 265.605469 82.832031 L 253.253906 101.390625 L 267.453125 82.988281 Z M 265.605469 82.832031 " fill-opacity="1" fill-rule="nonzero"/></g></g></g><g clip-path="url(#10b78ac1b6)"><g clip-path="url(#662728ca6f)"><g clip-path="url(#e6110d4f6b)"><path fill="#2c3892" d="M 300.261719 52 C 298.050781 50.414062 289.878906 58.023438 282.007812 68.988281 C 281.457031 69.757812 280.835938 70.667969 280.148438 71.699219 L 248.84375 74.734375 L 244.214844 79.96875 L 273.378906 82.453125 C 268.355469 90.695312 262.582031 100.5625 258.152344 108.210938 L 249.429688 105.242188 L 246.753906 106.789062 L 255.394531 112.988281 C 252.953125 117.230469 253.667969 117.476562 256.992188 113.875 L 263.789062 118.835938 L 264.421875 116.246094 L 260.472656 109.9375 C 266.28125 103.316406 273.753906 94.710938 279.949219 87.320312 L 291.726562 114.050781 L 295.5625 107.296875 L 288.355469 76.964844 C 288.984375 76.144531 289.542969 75.394531 290.015625 74.734375 C 297.886719 63.765625 302.472656 53.585938 300.261719 52 " fill-opacity="1" fill-rule="nonzero"/></g></g></g><g clip-path="url(#7ae2376dd2)"><g clip-path="url(#525f85621b)"><g clip-path="url(#af9959fce8)"><path fill="#2c3892" d="M 286.792969 105.71875 L 285.898438 103.691406 L 256.003906 147.347656 Z M 286.792969 105.71875 " fill-opacity="1" fill-rule="nonzero"/></g></g></g><g clip-path="url(#cb9a38c0bb)"><g clip-path="url(#da9316e2e1)"><g clip-path="url(#fe0abd8c49)"><path fill="#2c3892" d="M 280.171875 90.691406 L 265.929688 112.257812 L 281.003906 92.578125 Z M 280.171875 90.691406 " fill-opacity="1" fill-rule="nonzero"/></g></g></g><g fill="#ffffff" fill-opacity="0.4"><g transform="translate(86.500261, 296.795471)"><g><path d="M 29.59375 0 L 17.09375 0 L 16.34375 -8.5 L 6.46875 -8.5 L 2.671875 0 L -2.515625 0 L 13.25 -33.921875 L 25.90625 -33.921875 Z M 8.234375 -12.390625 L 15.96875 -12.390625 L 14.75 -26.921875 Z M 8.234375 -12.390625 "/></g></g></g><g fill="#ffffff" fill-opacity="0.4"><g transform="translate(118.664369, 296.795471)"><g><path d="M 4.328125 -22.96875 L 13.03125 -22.96875 L 13.84375 -18.96875 L 14.203125 -18.96875 C 15.023438 -20.25 16.078125 -21.332031 17.359375 -22.21875 C 18.640625 -23.113281 20.332031 -23.5625 22.4375 -23.5625 C 22.582031 -23.5625 22.804688 -23.550781 23.109375 -23.53125 C 23.410156 -23.507812 23.75 -23.453125 24.125 -23.359375 C 24.5 -23.273438 24.890625 -23.148438 25.296875 -22.984375 C 25.703125 -22.828125 26.101562 -22.609375 26.5 -22.328125 L 24.140625 -11.328125 L 18.328125 -11.328125 C 18.253906 -13.535156 18.054688 -15.070312 17.734375 -15.9375 C 17.410156 -16.8125 16.894531 -17.25 16.1875 -17.25 C 15.832031 -17.25 15.445312 -17.171875 15.03125 -17.015625 C 14.625 -16.859375 14.207031 -16.507812 13.78125 -15.96875 L 10.359375 0 L -0.53125 0 Z M 4.328125 -22.96875 "/></g></g></g><g fill="#ffffff" fill-opacity="0.4"><g transform="translate(144.470455, 296.795471)"><g><path d="M 3.84375 -21 C 5.664062 -21.882812 7.523438 -22.53125 9.421875 -22.9375 C 11.328125 -23.351562 13.457031 -23.5625 15.8125 -23.5625 C 18.09375 -23.5625 19.976562 -23.378906 21.46875 -23.015625 C 22.96875 -22.660156 24.160156 -22.144531 25.046875 -21.46875 C 25.941406 -20.789062 26.566406 -19.988281 26.921875 -19.0625 C 27.273438 -18.144531 27.453125 -17.097656 27.453125 -15.921875 C 27.453125 -15.242188 27.40625 -14.507812 27.3125 -13.71875 C 27.226562 -12.9375 27.132812 -12.28125 27.03125 -11.75 L 24.515625 0 L 15.921875 0 L 14.953125 -3.421875 L 14.640625 -3.421875 C 13.492188 -2.171875 12.164062 -1.21875 10.65625 -0.5625 C 9.144531 0.09375 7.640625 0.421875 6.140625 0.421875 C 5.285156 0.421875 4.445312 0.296875 3.625 0.046875 C 2.8125 -0.203125 2.082031 -0.582031 1.4375 -1.09375 C 0.800781 -1.613281 0.289062 -2.273438 -0.09375 -3.078125 C -0.488281 -3.878906 -0.6875 -4.847656 -0.6875 -5.984375 C -0.6875 -7.835938 -0.179688 -9.304688 0.828125 -10.390625 C 1.835938 -11.472656 3.171875 -12.289062 4.828125 -12.84375 C 6.484375 -13.394531 8.351562 -13.742188 10.4375 -13.890625 C 12.519531 -14.035156 14.613281 -14.109375 16.71875 -14.109375 C 16.789062 -14.460938 16.878906 -14.96875 16.984375 -15.625 C 17.097656 -16.28125 17.15625 -16.859375 17.15625 -17.359375 C 17.15625 -18.003906 16.984375 -18.601562 16.640625 -19.15625 C 16.304688 -19.707031 15.601562 -19.984375 14.53125 -19.984375 C 13.28125 -19.984375 12.359375 -19.617188 11.765625 -18.890625 C 11.179688 -18.160156 10.800781 -17.273438 10.625 -16.234375 L 2.828125 -16.234375 Z M 16.140625 -11.59375 L 15.171875 -11.59375 C 14.140625 -11.59375 13.257812 -11.457031 12.53125 -11.1875 C 11.800781 -10.925781 11.210938 -10.582031 10.765625 -10.15625 C 10.316406 -9.726562 9.984375 -9.242188 9.765625 -8.703125 C 9.554688 -8.171875 9.453125 -7.640625 9.453125 -7.109375 C 9.453125 -6.253906 9.675781 -5.613281 10.125 -5.1875 C 10.570312 -4.757812 11.097656 -4.546875 11.703125 -4.546875 C 12.453125 -4.546875 13.191406 -4.8125 13.921875 -5.34375 C 14.648438 -5.875 15.101562 -6.585938 15.28125 -7.484375 Z M 16.140625 -11.59375 "/></g></g></g><g fill="#ffffff" fill-opacity="0.4"><g transform="translate(173.963125, 296.795471)"><g><path d="M 8.125 0 L -0.53125 0 L 7.046875 -35.90625 L 18 -35.90625 L 14.53125 -19.546875 L 14.90625 -19.546875 C 16.082031 -20.898438 17.410156 -21.867188 18.890625 -22.453125 C 20.367188 -23.046875 21.835938 -23.34375 23.296875 -23.34375 C 24.535156 -23.34375 25.570312 -23.15625 26.40625 -22.78125 C 27.25 -22.40625 27.921875 -21.894531 28.421875 -21.25 C 28.921875 -20.613281 29.273438 -19.847656 29.484375 -18.953125 C 29.703125 -18.066406 29.8125 -17.128906 29.8125 -16.140625 C 29.8125 -15.640625 29.773438 -14.890625 29.703125 -13.890625 C 29.628906 -12.890625 29.46875 -11.773438 29.21875 -10.546875 C 28.96875 -9.316406 28.609375 -8.050781 28.140625 -6.75 C 27.679688 -5.457031 27.066406 -4.273438 26.296875 -3.203125 C 25.535156 -2.140625 24.578125 -1.269531 23.421875 -0.59375 C 22.265625 0.0820312 20.882812 0.421875 19.28125 0.421875 C 18.320312 0.421875 17.390625 0.3125 16.484375 0.09375 C 15.578125 -0.113281 14.753906 -0.394531 14.015625 -0.75 C 13.285156 -1.101562 12.644531 -1.519531 12.09375 -2 C 11.539062 -2.476562 11.140625 -2.96875 10.890625 -3.46875 L 10.53125 -3.46875 Z M 14.15625 -4.75 C 15.007812 -4.75 15.722656 -5.203125 16.296875 -6.109375 C 16.867188 -7.023438 17.332031 -8.097656 17.6875 -9.328125 C 18.039062 -10.554688 18.296875 -11.78125 18.453125 -13 C 18.617188 -14.226562 18.703125 -15.148438 18.703125 -15.765625 C 18.703125 -16.472656 18.582031 -17.054688 18.34375 -17.515625 C 18.113281 -17.984375 17.695312 -18.21875 17.09375 -18.21875 C 16.382812 -18.21875 15.722656 -17.957031 15.109375 -17.4375 C 14.503906 -16.925781 14.0625 -16.492188 13.78125 -16.140625 L 11.703125 -6.578125 C 11.953125 -6.148438 12.28125 -5.738281 12.6875 -5.34375 C 13.09375 -4.945312 13.582031 -4.75 14.15625 -4.75 Z M 14.15625 -4.75 "/></g></g></g><g fill="#ffffff" fill-opacity="0.4"><g transform="translate(205.218936, 296.795471)"><g><path d="M 10.3125 0 L -0.53125 0 L 4.328125 -22.96875 L 15.28125 -22.96875 Z M 16.671875 -29.96875 C 16.671875 -29.144531 16.5 -28.429688 16.15625 -27.828125 C 15.820312 -27.222656 15.378906 -26.707031 14.828125 -26.28125 C 14.273438 -25.851562 13.640625 -25.53125 12.921875 -25.3125 C 12.210938 -25.101562 11.484375 -25 10.734375 -25 C 9.304688 -25 8.113281 -25.335938 7.15625 -26.015625 C 6.195312 -26.691406 5.71875 -27.757812 5.71875 -29.21875 C 5.71875 -30 5.875 -30.703125 6.1875 -31.328125 C 6.507812 -31.953125 6.945312 -32.46875 7.5 -32.875 C 8.050781 -33.289062 8.691406 -33.601562 9.421875 -33.8125 C 10.160156 -34.03125 10.921875 -34.140625 11.703125 -34.140625 C 13.085938 -34.140625 14.257812 -33.800781 15.21875 -33.125 C 16.1875 -32.445312 16.671875 -31.394531 16.671875 -29.96875 Z M 16.671875 -29.96875 "/></g></g></g><g fill="#ffffff" fill-opacity="0.4"><g transform="translate(220.873556, 296.795471)"><g><path d="M 3.84375 -21 C 5.664062 -21.882812 7.523438 -22.53125 9.421875 -22.9375 C 11.328125 -23.351562 13.457031 -23.5625 15.8125 -23.5625 C 18.09375 -23.5625 19.976562 -23.378906 21.46875 -23.015625 C 22.96875 -22.660156 24.160156 -22.144531 25.046875 -21.46875 C 25.941406 -20.789062 26.566406 -19.988281 26.921875 -19.0625 C 27.273438 -18.144531 27.453125 -17.097656 27.453125 -15.921875 C 27.453125 -15.242188 27.40625 -14.507812 27.3125 -13.71875 C 27.226562 -12.9375 27.132812 -12.28125 27.03125 -11.75 L 24.515625 0 L 15.921875 0 L 14.953125 -3.421875 L 14.640625 -3.421875 C 13.492188 -2.171875 12.164062 -1.21875 10.65625 -0.5625 C 9.144531 0.09375 7.640625 0.421875 6.140625 0.421875 C 5.285156 0.421875 4.445312 0.296875 3.625 0.046875 C 2.8125 -0.203125 2.082031 -0.582031 1.4375 -1.09375 C 0.800781 -1.613281 0.289062 -2.273438 -0.09375 -3.078125 C -0.488281 -3.878906 -0.6875 -4.847656 -0.6875 -5.984375 C -0.6875 -7.835938 -0.179688 -9.304688 0.828125 -10.390625 C 1.835938 -11.472656 3.171875 -12.289062 4.828125 -12.84375 C 6.484375 -13.394531 8.351562 -13.742188 10.4375 -13.890625 C 12.519531 -14.035156 14.613281 -14.109375 16.71875 -14.109375 C 16.789062 -14.460938 16.878906 -14.96875 16.984375 -15.625 C 17.097656 -16.28125 17.15625 -16.859375 17.15625 -17.359375 C 17.15625 -18.003906 16.984375 -18.601562 16.640625 -19.15625 C 16.304688 -19.707031 15.601562 -19.984375 14.53125 -19.984375 C 13.28125 -19.984375 12.359375 -19.617188 11.765625 -18.890625 C 11.179688 -18.160156 10.800781 -17.273438 10.625 -16.234375 L 2.828125 -16.234375 Z M 16.140625 -11.59375 L 15.171875 -11.59375 C 14.140625 -11.59375 13.257812 -11.457031 12.53125 -11.1875 C 11.800781 -10.925781 11.210938 -10.582031 10.765625 -10.15625 C 10.316406 -9.726562 9.984375 -9.242188 9.765625 -8.703125 C 9.554688 -8.171875 9.453125 -7.640625 9.453125 -7.109375 C 9.453125 -6.253906 9.675781 -5.613281 10.125 -5.1875 C 10.570312 -4.757812 11.097656 -4.546875 11.703125 -4.546875 C 12.453125 -4.546875 13.191406 -4.8125 13.921875 -5.34375 C 14.648438 -5.875 15.101562 -6.585938 15.28125 -7.484375 Z M 16.140625 -11.59375 "/></g></g></g><g fill="#ffffff" fill-opacity="0.4"><g transform="translate(250.366225, 296.795471)"><g><path d="M 14.3125 -19.546875 C 15.0625 -20.265625 15.898438 -20.925781 16.828125 -21.53125 C 17.648438 -22.03125 18.613281 -22.492188 19.71875 -22.921875 C 20.820312 -23.347656 22.050781 -23.5625 23.40625 -23.5625 C 25.25 -23.5625 26.773438 -23.085938 27.984375 -22.140625 C 29.203125 -21.203125 29.8125 -19.910156 29.8125 -18.265625 C 29.8125 -17.804688 29.753906 -17.242188 29.640625 -16.578125 C 29.535156 -15.921875 29.410156 -15.238281 29.265625 -14.53125 C 29.128906 -13.820312 28.976562 -13.097656 28.8125 -12.359375 C 28.65625 -11.628906 28.523438 -10.984375 28.421875 -10.421875 L 26.171875 0 L 15.328125 0 L 18.265625 -13.9375 C 18.335938 -14.40625 18.425781 -14.878906 18.53125 -15.359375 C 18.644531 -15.835938 18.703125 -16.273438 18.703125 -16.671875 C 18.703125 -17.203125 18.566406 -17.632812 18.296875 -17.96875 C 18.023438 -18.3125 17.625 -18.484375 17.09375 -18.484375 C 16.457031 -18.484375 15.84375 -18.25 15.25 -17.78125 C 14.664062 -17.320312 14.210938 -16.929688 13.890625 -16.609375 L 10.359375 0 L -0.53125 0 L 4.328125 -22.96875 L 13.03125 -22.96875 L 14 -19.546875 Z M 14.3125 -19.546875 "/></g></g></g><g fill="#f68712" fill-opacity="1"><g transform="translate(84.138933, 294.434142)"><g><path d="M 29.59375 0 L 17.09375 0 L 16.34375 -8.5 L 6.46875 -8.5 L 2.671875 0 L -2.515625 0 L 13.25 -33.921875 L 25.90625 -33.921875 Z M 8.234375 -12.390625 L 15.96875 -12.390625 L 14.75 -26.921875 Z M 8.234375 -12.390625 "/></g></g></g><g fill="#f68712" fill-opacity="1"><g transform="translate(116.303041, 294.434142)"><g><path d="M 4.328125 -22.96875 L 13.03125 -22.96875 L 13.84375 -18.96875 L 14.203125 -18.96875 C 15.023438 -20.25 16.078125 -21.332031 17.359375 -22.21875 C 18.640625 -23.113281 20.332031 -23.5625 22.4375 -23.5625 C 22.582031 -23.5625 22.804688 -23.550781 23.109375 -23.53125 C 23.410156 -23.507812 23.75 -23.453125 24.125 -23.359375 C 24.5 -23.273438 24.890625 -23.148438 25.296875 -22.984375 C 25.703125 -22.828125 26.101562 -22.609375 26.5 -22.328125 L 24.140625 -11.328125 L 18.328125 -11.328125 C 18.253906 -13.535156 18.054688 -15.070312 17.734375 -15.9375 C 17.410156 -16.8125 16.894531 -17.25 16.1875 -17.25 C 15.832031 -17.25 15.445312 -17.171875 15.03125 -17.015625 C 14.625 -16.859375 14.207031 -16.507812 13.78125 -15.96875 L 10.359375 0 L -0.53125 0 Z M 4.328125 -22.96875 "/></g></g></g><g fill="#f68712" fill-opacity="1"><g transform="translate(142.109127, 294.434142)"><g><path d="M 3.84375 -21 C 5.664062 -21.882812 7.523438 -22.53125 9.421875 -22.9375 C 11.328125 -23.351562 13.457031 -23.5625 15.8125 -23.5625 C 18.09375 -23.5625 19.976562 -23.378906 21.46875 -23.015625 C 22.96875 -22.660156 24.160156 -22.144531 25.046875 -21.46875 C 25.941406 -20.789062 26.566406 -19.988281 26.921875 -19.0625 C 27.273438 -18.144531 27.453125 -17.097656 27.453125 -15.921875 C 27.453125 -15.242188 27.40625 -14.507812 27.3125 -13.71875 C 27.226562 -12.9375 27.132812 -12.28125 27.03125 -11.75 L 24.515625 0 L 15.921875 0 L 14.953125 -3.421875 L 14.640625 -3.421875 C 13.492188 -2.171875 12.164062 -1.21875 10.65625 -0.5625 C 9.144531 0.09375 7.640625 0.421875 6.140625 0.421875 C 5.285156 0.421875 4.445312 0.296875 3.625 0.046875 C 2.8125 -0.203125 2.082031 -0.582031 1.4375 -1.09375 C 0.800781 -1.613281 0.289062 -2.273438 -0.09375 -3.078125 C -0.488281 -3.878906 -0.6875 -4.847656 -0.6875 -5.984375 C -0.6875 -7.835938 -0.179688 -9.304688 0.828125 -10.390625 C 1.835938 -11.472656 3.171875 -12.289062 4.828125 -12.84375 C 6.484375 -13.394531 8.351562 -13.742188 10.4375 -13.890625 C 12.519531 -14.035156 14.613281 -14.109375 16.71875 -14.109375 C 16.789062 -14.460938 16.878906 -14.96875 16.984375 -15.625 C 17.097656 -16.28125 17.15625 -16.859375 17.15625 -17.359375 C 17.15625 -18.003906 16.984375 -18.601562 16.640625 -19.15625 C 16.304688 -19.707031 15.601562 -19.984375 14.53125 -19.984375 C 13.28125 -19.984375 12.359375 -19.617188 11.765625 -18.890625 C 11.179688 -18.160156 10.800781 -17.273438 10.625 -16.234375 L 2.828125 -16.234375 Z M 16.140625 -11.59375 L 15.171875 -11.59375 C 14.140625 -11.59375 13.257812 -11.457031 12.53125 -11.1875 C 11.800781 -10.925781 11.210938 -10.582031 10.765625 -10.15625 C 10.316406 -9.726562 9.984375 -9.242188 9.765625 -8.703125 C 9.554688 -8.171875 9.453125 -7.640625 9.453125 -7.109375 C 9.453125 -6.253906 9.675781 -5.613281 10.125 -5.1875 C 10.570312 -4.757812 11.097656 -4.546875 11.703125 -4.546875 C 12.453125 -4.546875 13.191406 -4.8125 13.921875 -5.34375 C 14.648438 -5.875 15.101562 -6.585938 15.28125 -7.484375 Z M 16.140625 -11.59375 "/></g></g></g><g fill="#f68712" fill-opacity="1"><g transform="translate(171.601796, 294.434142)"><g><path d="M 8.125 0 L -0.53125 0 L 7.046875 -35.90625 L 18 -35.90625 L 14.53125 -19.546875 L 14.90625 -19.546875 C 16.082031 -20.898438 17.410156 -21.867188 18.890625 -22.453125 C 20.367188 -23.046875 21.835938 -23.34375 23.296875 -23.34375 C 24.535156 -23.34375 25.570312 -23.15625 26.40625 -22.78125 C 27.25 -22.40625 27.921875 -21.894531 28.421875 -21.25 C 28.921875 -20.613281 29.273438 -19.847656 29.484375 -18.953125 C 29.703125 -18.066406 29.8125 -17.128906 29.8125 -16.140625 C 29.8125 -15.640625 29.773438 -14.890625 29.703125 -13.890625 C 29.628906 -12.890625 29.46875 -11.773438 29.21875 -10.546875 C 28.96875 -9.316406 28.609375 -8.050781 28.140625 -6.75 C 27.679688 -5.457031 27.066406 -4.273438 26.296875 -3.203125 C 25.535156 -2.140625 24.578125 -1.269531 23.421875 -0.59375 C 22.265625 0.0820312 20.882812 0.421875 19.28125 0.421875 C 18.320312 0.421875 17.390625 0.3125 16.484375 0.09375 C 15.578125 -0.113281 14.753906 -0.394531 14.015625 -0.75 C 13.285156 -1.101562 12.644531 -1.519531 12.09375 -2 C 11.539062 -2.476562 11.140625 -2.96875 10.890625 -3.46875 L 10.53125 -3.46875 Z M 14.15625 -4.75 C 15.007812 -4.75 15.722656 -5.203125 16.296875 -6.109375 C 16.867188 -7.023438 17.332031 -8.097656 17.6875 -9.328125 C 18.039062 -10.554688 18.296875 -11.78125 18.453125 -13 C 18.617188 -14.226562 18.703125 -15.148438 18.703125 -15.765625 C 18.703125 -16.472656 18.582031 -17.054688 18.34375 -17.515625 C 18.113281 -17.984375 17.695312 -18.21875 17.09375 -18.21875 C 16.382812 -18.21875 15.722656 -17.957031 15.109375 -17.4375 C 14.503906 -16.925781 14.0625 -16.492188 13.78125 -16.140625 L 11.703125 -6.578125 C 11.953125 -6.148438 12.28125 -5.738281 12.6875 -5.34375 C 13.09375 -4.945312 13.582031 -4.75 14.15625 -4.75 Z M 14.15625 -4.75 "/></g></g></g><g fill="#f68712" fill-opacity="1"><g transform="translate(202.857607, 294.434142)"><g><path d="M 10.3125 0 L -0.53125 0 L 4.328125 -22.96875 L 15.28125 -22.96875 Z M 16.671875 -29.96875 C 16.671875 -29.144531 16.5 -28.429688 16.15625 -27.828125 C 15.820312 -27.222656 15.378906 -26.707031 14.828125 -26.28125 C 14.273438 -25.851562 13.640625 -25.53125 12.921875 -25.3125 C 12.210938 -25.101562 11.484375 -25 10.734375 -25 C 9.304688 -25 8.113281 -25.335938 7.15625 -26.015625 C 6.195312 -26.691406 5.71875 -27.757812 5.71875 -29.21875 C 5.71875 -30 5.875 -30.703125 6.1875 -31.328125 C 6.507812 -31.953125 6.945312 -32.46875 7.5 -32.875 C 8.050781 -33.289062 8.691406 -33.601562 9.421875 -33.8125 C 10.160156 -34.03125 10.921875 -34.140625 11.703125 -34.140625 C 13.085938 -34.140625 14.257812 -33.800781 15.21875 -33.125 C 16.1875 -32.445312 16.671875 -31.394531 16.671875 -29.96875 Z M 16.671875 -29.96875 "/></g></g></g><g fill="#f68712" fill-opacity="1"><g transform="translate(218.512227, 294.434142)"><g><path d="M 3.84375 -21 C 5.664062 -21.882812 7.523438 -22.53125 9.421875 -22.9375 C 11.328125 -23.351562 13.457031 -23.5625 15.8125 -23.5625 C 18.09375 -23.5625 19.976562 -23.378906 21.46875 -23.015625 C 22.96875 -22.660156 24.160156 -22.144531 25.046875 -21.46875 C 25.941406 -20.789062 26.566406 -19.988281 26.921875 -19.0625 C 27.273438 -18.144531 27.453125 -17.097656 27.453125 -15.921875 C 27.453125 -15.242188 27.40625 -14.507812 27.3125 -13.71875 C 27.226562 -12.9375 27.132812 -12.28125 27.03125 -11.75 L 24.515625 0 L 15.921875 0 L 14.953125 -3.421875 L 14.640625 -3.421875 C 13.492188 -2.171875 12.164062 -1.21875 10.65625 -0.5625 C 9.144531 0.09375 7.640625 0.421875 6.140625 0.421875 C 5.285156 0.421875 4.445312 0.296875 3.625 0.046875 C 2.8125 -0.203125 2.082031 -0.582031 1.4375 -1.09375 C 0.800781 -1.613281 0.289062 -2.273438 -0.09375 -3.078125 C -0.488281 -3.878906 -0.6875 -4.847656 -0.6875 -5.984375 C -0.6875 -7.835938 -0.179688 -9.304688 0.828125 -10.390625 C 1.835938 -11.472656 3.171875 -12.289062 4.828125 -12.84375 C 6.484375 -13.394531 8.351562 -13.742188 10.4375 -13.890625 C 12.519531 -14.035156 14.613281 -14.109375 16.71875 -14.109375 C 16.789062 -14.460938 16.878906 -14.96875 16.984375 -15.625 C 17.097656 -16.28125 17.15625 -16.859375 17.15625 -17.359375 C 17.15625 -18.003906 16.984375 -18.601562 16.640625 -19.15625 C 16.304688 -19.707031 15.601562 -19.984375 14.53125 -19.984375 C 13.28125 -19.984375 12.359375 -19.617188 11.765625 -18.890625 C 11.179688 -18.160156 10.800781 -17.273438 10.625 -16.234375 L 2.828125 -16.234375 Z M 16.140625 -11.59375 L 15.171875 -11.59375 C 14.140625 -11.59375 13.257812 -11.457031 12.53125 -11.1875 C 11.800781 -10.925781 11.210938 -10.582031 10.765625 -10.15625 C 10.316406 -9.726562 9.984375 -9.242188 9.765625 -8.703125 C 9.554688 -8.171875 9.453125 -7.640625 9.453125 -7.109375 C 9.453125 -6.253906 9.675781 -5.613281 10.125 -5.1875 C 10.570312 -4.757812 11.097656 -4.546875 11.703125 -4.546875 C 12.453125 -4.546875 13.191406 -4.8125 13.921875 -5.34375 C 14.648438 -5.875 15.101562 -6.585938 15.28125 -7.484375 Z M 16.140625 -11.59375 "/></g></g></g><g fill="#f68712" fill-opacity="1"><g transform="translate(248.004897, 294.434142)"><g><path d="M 14.3125 -19.546875 C 15.0625 -20.265625 15.898438 -20.925781 16.828125 -21.53125 C 17.648438 -22.03125 18.613281 -22.492188 19.71875 -22.921875 C 20.820312 -23.347656 22.050781 -23.5625 23.40625 -23.5625 C 25.25 -23.5625 26.773438 -23.085938 27.984375 -22.140625 C 29.203125 -21.203125 29.8125 -19.910156 29.8125 -18.265625 C 29.8125 -17.804688 29.753906 -17.242188 29.640625 -16.578125 C 29.535156 -15.921875 29.410156 -15.238281 29.265625 -14.53125 C 29.128906 -13.820312 28.976562 -13.097656 28.8125 -12.359375 C 28.65625 -11.628906 28.523438 -10.984375 28.421875 -10.421875 L 26.171875 0 L 15.328125 0 L 18.265625 -13.9375 C 18.335938 -14.40625 18.425781 -14.878906 18.53125 -15.359375 C 18.644531 -15.835938 18.703125 -16.273438 18.703125 -16.671875 C 18.703125 -17.203125 18.566406 -17.632812 18.296875 -17.96875 C 18.023438 -18.3125 17.625 -18.484375 17.09375 -18.484375 C 16.457031 -18.484375 15.84375 -18.25 15.25 -17.78125 C 14.664062 -17.320312 14.210938 -16.929688 13.890625 -16.609375 L 10.359375 0 L -0.53125 0 L 4.328125 -22.96875 L 13.03125 -22.96875 L 14 -19.546875 Z M 14.3125 -19.546875 "/></g></g></g><g fill="#2c3892" fill-opacity="1"><g transform="translate(131.128935, 312.824565)"><g><path d="M 4.40625 0.171875 C 3.644531 0.171875 2.984375 0.0351562 2.421875 -0.234375 C 1.859375 -0.515625 1.421875 -0.898438 1.109375 -1.390625 C 0.804688 -1.890625 0.65625 -2.460938 0.65625 -3.109375 L 1.953125 -3.109375 C 1.953125 -2.703125 2.046875 -2.328125 2.234375 -1.984375 C 2.421875 -1.648438 2.695312 -1.378906 3.0625 -1.171875 C 3.425781 -0.972656 3.875 -0.875 4.40625 -0.875 C 5.101562 -0.875 5.644531 -1.039062 6.03125 -1.375 C 6.414062 -1.71875 6.609375 -2.140625 6.609375 -2.640625 C 6.609375 -3.054688 6.519531 -3.390625 6.34375 -3.640625 C 6.164062 -3.890625 5.925781 -4.09375 5.625 -4.25 C 5.320312 -4.414062 4.972656 -4.554688 4.578125 -4.671875 C 4.191406 -4.785156 3.785156 -4.921875 3.359375 -5.078125 C 2.566406 -5.347656 1.976562 -5.6875 1.59375 -6.09375 C 1.207031 -6.507812 1.015625 -7.046875 1.015625 -7.703125 C 1.003906 -8.265625 1.128906 -8.757812 1.390625 -9.1875 C 1.660156 -9.613281 2.039062 -9.945312 2.53125 -10.1875 C 3.019531 -10.4375 3.597656 -10.5625 4.265625 -10.5625 C 4.929688 -10.5625 5.507812 -10.4375 6 -10.1875 C 6.488281 -9.9375 6.867188 -9.59375 7.140625 -9.15625 C 7.410156 -8.726562 7.550781 -8.238281 7.5625 -7.6875 L 6.25 -7.6875 C 6.25 -7.96875 6.175781 -8.25 6.03125 -8.53125 C 5.882812 -8.8125 5.660156 -9.039062 5.359375 -9.21875 C 5.054688 -9.394531 4.675781 -9.484375 4.21875 -9.484375 C 3.65625 -9.492188 3.191406 -9.347656 2.828125 -9.046875 C 2.472656 -8.753906 2.296875 -8.347656 2.296875 -7.828125 C 2.296875 -7.378906 2.421875 -7.035156 2.671875 -6.796875 C 2.921875 -6.566406 3.273438 -6.375 3.734375 -6.21875 C 4.191406 -6.0625 4.71875 -5.882812 5.3125 -5.6875 C 5.800781 -5.507812 6.242188 -5.300781 6.640625 -5.0625 C 7.035156 -4.832031 7.34375 -4.53125 7.5625 -4.15625 C 7.789062 -3.78125 7.90625 -3.300781 7.90625 -2.71875 C 7.90625 -2.21875 7.773438 -1.75 7.515625 -1.3125 C 7.253906 -0.875 6.863281 -0.515625 6.34375 -0.234375 C 5.832031 0.0351562 5.1875 0.171875 4.40625 0.171875 Z M 4.40625 0.171875 "/></g></g></g><g fill="#2c3892" fill-opacity="1"><g transform="translate(139.699193, 312.824565)"><g><path d="M 0.4375 0 L 4.265625 -10.375 L 5.59375 -10.375 L 9.40625 0 L 8.078125 0 L 7.125 -2.671875 L 2.71875 -2.671875 L 1.75 0 Z M 3.078125 -3.671875 L 6.765625 -3.671875 L 4.921875 -8.8125 Z M 3.078125 -3.671875 "/></g></g></g><g fill="#2c3892" fill-opacity="1"><g transform="translate(149.54461, 312.824565)"><g><path d="M 1.09375 0 L 1.09375 -10.375 L 2.34375 -10.375 L 7.875 -2.0625 L 7.875 -10.375 L 9.125 -10.375 L 9.125 0 L 7.875 0 L 2.34375 -8.3125 L 2.34375 0 Z M 1.09375 0 "/></g></g></g><g fill="#2c3892" fill-opacity="1"><g transform="translate(159.760712, 312.824565)"><g><path d="M 1.09375 0 L 1.09375 -10.375 L 4.28125 -10.375 C 6.113281 -10.375 7.460938 -9.910156 8.328125 -8.984375 C 9.191406 -8.054688 9.625 -6.78125 9.625 -5.15625 C 9.625 -3.5625 9.191406 -2.300781 8.328125 -1.375 C 7.460938 -0.457031 6.113281 0 4.28125 0 Z M 2.34375 -1.03125 L 4.25 -1.03125 C 5.257812 -1.03125 6.0625 -1.195312 6.65625 -1.53125 C 7.257812 -1.863281 7.6875 -2.335938 7.9375 -2.953125 C 8.195312 -3.578125 8.328125 -4.3125 8.328125 -5.15625 C 8.328125 -6.03125 8.195312 -6.773438 7.9375 -7.390625 C 7.6875 -8.015625 7.257812 -8.492188 6.65625 -8.828125 C 6.0625 -9.171875 5.257812 -9.34375 4.25 -9.34375 L 2.34375 -9.34375 Z M 2.34375 -1.03125 "/></g></g></g><g fill="#2c3892" fill-opacity="1"><g transform="translate(170.080607, 312.824565)"><g><path d="M 4.40625 0.171875 C 3.644531 0.171875 2.984375 0.0351562 2.421875 -0.234375 C 1.859375 -0.515625 1.421875 -0.898438 1.109375 -1.390625 C 0.804688 -1.890625 0.65625 -2.460938 0.65625 -3.109375 L 1.953125 -3.109375 C 1.953125 -2.703125 2.046875 -2.328125 2.234375 -1.984375 C 2.421875 -1.648438 2.695312 -1.378906 3.0625 -1.171875 C 3.425781 -0.972656 3.875 -0.875 4.40625 -0.875 C 5.101562 -0.875 5.644531 -1.039062 6.03125 -1.375 C 6.414062 -1.71875 6.609375 -2.140625 6.609375 -2.640625 C 6.609375 -3.054688 6.519531 -3.390625 6.34375 -3.640625 C 6.164062 -3.890625 5.925781 -4.09375 5.625 -4.25 C 5.320312 -4.414062 4.972656 -4.554688 4.578125 -4.671875 C 4.191406 -4.785156 3.785156 -4.921875 3.359375 -5.078125 C 2.566406 -5.347656 1.976562 -5.6875 1.59375 -6.09375 C 1.207031 -6.507812 1.015625 -7.046875 1.015625 -7.703125 C 1.003906 -8.265625 1.128906 -8.757812 1.390625 -9.1875 C 1.660156 -9.613281 2.039062 -9.945312 2.53125 -10.1875 C 3.019531 -10.4375 3.597656 -10.5625 4.265625 -10.5625 C 4.929688 -10.5625 5.507812 -10.4375 6 -10.1875 C 6.488281 -9.9375 6.867188 -9.59375 7.140625 -9.15625 C 7.410156 -8.726562 7.550781 -8.238281 7.5625 -7.6875 L 6.25 -7.6875 C 6.25 -7.96875 6.175781 -8.25 6.03125 -8.53125 C 5.882812 -8.8125 5.660156 -9.039062 5.359375 -9.21875 C 5.054688 -9.394531 4.675781 -9.484375 4.21875 -9.484375 C 3.65625 -9.492188 3.191406 -9.347656 2.828125 -9.046875 C 2.472656 -8.753906 2.296875 -8.347656 2.296875 -7.828125 C 2.296875 -7.378906 2.421875 -7.035156 2.671875 -6.796875 C 2.921875 -6.566406 3.273438 -6.375 3.734375 -6.21875 C 4.191406 -6.0625 4.71875 -5.882812 5.3125 -5.6875 C 5.800781 -5.507812 6.242188 -5.300781 6.640625 -5.0625 C 7.035156 -4.832031 7.34375 -4.53125 7.5625 -4.15625 C 7.789062 -3.78125 7.90625 -3.300781 7.90625 -2.71875 C 7.90625 -2.21875 7.773438 -1.75 7.515625 -1.3125 C 7.253906 -0.875 6.863281 -0.515625 6.34375 -0.234375 C 5.832031 0.0351562 5.1875 0.171875 4.40625 0.171875 Z M 4.40625 0.171875 "/></g></g></g><g fill="#2c3892" fill-opacity="1"><g transform="translate(178.650865, 312.824565)"><g/></g></g><g fill="#2c3892" fill-opacity="1"><g transform="translate(182.580131, 312.824565)"><g><path d="M 3.53125 0 L 3.53125 -9.359375 L 0.4375 -9.359375 L 0.4375 -10.375 L 7.875 -10.375 L 7.875 -9.359375 L 4.78125 -9.359375 L 4.78125 0 Z M 3.53125 0 "/></g></g></g><g fill="#2c3892" fill-opacity="1"><g transform="translate(190.883497, 312.824565)"><g><path d="M 5.8125 0.171875 C 4.789062 0.171875 3.894531 -0.0507812 3.125 -0.5 C 2.363281 -0.945312 1.769531 -1.578125 1.34375 -2.390625 C 0.914062 -3.203125 0.703125 -4.132812 0.703125 -5.1875 C 0.703125 -6.25 0.914062 -7.179688 1.34375 -7.984375 C 1.769531 -8.785156 2.363281 -9.414062 3.125 -9.875 C 3.894531 -10.332031 4.789062 -10.5625 5.8125 -10.5625 C 6.84375 -10.5625 7.738281 -10.332031 8.5 -9.875 C 9.269531 -9.414062 9.863281 -8.785156 10.28125 -7.984375 C 10.707031 -7.179688 10.921875 -6.25 10.921875 -5.1875 C 10.921875 -4.132812 10.707031 -3.203125 10.28125 -2.390625 C 9.863281 -1.578125 9.269531 -0.945312 8.5 -0.5 C 7.738281 -0.0507812 6.84375 0.171875 5.8125 0.171875 Z M 5.8125 -0.921875 C 6.570312 -0.921875 7.238281 -1.085938 7.8125 -1.421875 C 8.394531 -1.765625 8.847656 -2.253906 9.171875 -2.890625 C 9.492188 -3.535156 9.65625 -4.300781 9.65625 -5.1875 C 9.65625 -6.082031 9.492188 -6.84375 9.171875 -7.46875 C 8.847656 -8.101562 8.394531 -8.59375 7.8125 -8.9375 C 7.238281 -9.28125 6.570312 -9.453125 5.8125 -9.453125 C 5.050781 -9.453125 4.378906 -9.28125 3.796875 -8.9375 C 3.222656 -8.59375 2.773438 -8.101562 2.453125 -7.46875 C 2.128906 -6.84375 1.96875 -6.082031 1.96875 -5.1875 C 1.96875 -4.300781 2.128906 -3.535156 2.453125 -2.890625 C 2.773438 -2.253906 3.222656 -1.765625 3.796875 -1.421875 C 4.378906 -1.085938 5.050781 -0.921875 5.8125 -0.921875 Z M 5.8125 -0.921875 "/></g></g></g><g fill="#2c3892" fill-opacity="1"><g transform="translate(202.508202, 312.824565)"><g><path d="M 4.84375 0.171875 C 4.132812 0.171875 3.488281 0.03125 2.90625 -0.25 C 2.332031 -0.53125 1.875 -0.96875 1.53125 -1.5625 C 1.1875 -2.15625 1.015625 -2.910156 1.015625 -3.828125 L 1.015625 -10.375 L 2.25 -10.375 L 2.25 -3.8125 C 2.25 -2.800781 2.488281 -2.066406 2.96875 -1.609375 C 3.457031 -1.160156 4.09375 -0.9375 4.875 -0.9375 C 5.65625 -0.9375 6.28125 -1.160156 6.75 -1.609375 C 7.226562 -2.066406 7.46875 -2.800781 7.46875 -3.8125 L 7.46875 -10.375 L 8.71875 -10.375 L 8.71875 -3.828125 C 8.71875 -2.910156 8.546875 -2.15625 8.203125 -1.5625 C 7.859375 -0.96875 7.394531 -0.53125 6.8125 -0.25 C 6.226562 0.03125 5.570312 0.171875 4.84375 0.171875 Z M 4.84375 0.171875 "/></g></g></g><g fill="#2c3892" fill-opacity="1"><g transform="translate(212.234995, 312.824565)"><g><path d="M 1.09375 0 L 1.09375 -10.375 L 4.453125 -10.375 C 5.265625 -10.375 5.925781 -10.238281 6.4375 -9.96875 C 6.945312 -9.707031 7.328125 -9.34375 7.578125 -8.875 C 7.828125 -8.414062 7.953125 -7.90625 7.953125 -7.34375 C 7.953125 -6.6875 7.773438 -6.097656 7.421875 -5.578125 C 7.066406 -5.054688 6.519531 -4.6875 5.78125 -4.46875 L 8.046875 0 L 6.578125 0 L 4.484375 -4.28125 L 2.34375 -4.28125 L 2.34375 0 Z M 2.34375 -5.265625 L 4.359375 -5.265625 C 5.160156 -5.265625 5.742188 -5.457031 6.109375 -5.84375 C 6.472656 -6.226562 6.65625 -6.722656 6.65625 -7.328125 C 6.65625 -7.941406 6.472656 -8.425781 6.109375 -8.78125 C 5.753906 -9.144531 5.164062 -9.328125 4.34375 -9.328125 L 2.34375 -9.328125 Z M 2.34375 -5.265625 "/></g></g></g><g fill="#2c3892" fill-opacity="1"><g transform="translate(221.027664, 312.824565)"><g/></g></g><g fill="#2c3892" fill-opacity="1"><g transform="translate(224.95693, 312.824565)"><g><path d="M 1.09375 0 L 1.09375 -10.375 L 2.34375 -10.375 L 2.34375 -1 L 7.171875 -1 L 7.171875 0 Z M 1.09375 0 "/></g></g></g><g fill="#2c3892" fill-opacity="1"><g transform="translate(232.741331, 312.824565)"><g><path d="M 1.453125 0.078125 C 1.203125 0.078125 0.992188 -0.00390625 0.828125 -0.171875 C 0.671875 -0.335938 0.59375 -0.535156 0.59375 -0.765625 C 0.59375 -1.003906 0.671875 -1.203125 0.828125 -1.359375 C 0.992188 -1.523438 1.203125 -1.609375 1.453125 -1.609375 C 1.691406 -1.609375 1.890625 -1.523438 2.046875 -1.359375 C 2.210938 -1.203125 2.296875 -1.003906 2.296875 -0.765625 C 2.296875 -0.535156 2.210938 -0.335938 2.046875 -0.171875 C 1.890625 -0.00390625 1.691406 0.078125 1.453125 0.078125 Z M 1.453125 0.078125 "/></g></g></g><g fill="#2c3892" fill-opacity="1"><g transform="translate(235.632679, 312.824565)"><g><path d="M 1.09375 0 L 1.09375 -10.375 L 2.34375 -10.375 L 2.34375 -1 L 7.171875 -1 L 7.171875 0 Z M 1.09375 0 "/></g></g></g><g fill="#2c3892" fill-opacity="1"><g transform="translate(243.41708, 312.824565)"><g><path d="M 1.453125 0.078125 C 1.203125 0.078125 0.992188 -0.00390625 0.828125 -0.171875 C 0.671875 -0.335938 0.59375 -0.535156 0.59375 -0.765625 C 0.59375 -1.003906 0.671875 -1.203125 0.828125 -1.359375 C 0.992188 -1.523438 1.203125 -1.609375 1.453125 -1.609375 C 1.691406 -1.609375 1.890625 -1.523438 2.046875 -1.359375 C 2.210938 -1.203125 2.296875 -1.003906 2.296875 -0.765625 C 2.296875 -0.535156 2.210938 -0.335938 2.046875 -0.171875 C 1.890625 -0.00390625 1.691406 0.078125 1.453125 0.078125 Z M 1.453125 0.078125 "/></g></g></g><g fill="#2c3892" fill-opacity="1"><g transform="translate(246.308428, 312.824565)"><g><path d="M 5.65625 0.171875 C 4.632812 0.171875 3.753906 -0.0507812 3.015625 -0.5 C 2.273438 -0.945312 1.703125 -1.570312 1.296875 -2.375 C 0.898438 -3.1875 0.703125 -4.125 0.703125 -5.1875 C 0.703125 -6.25 0.898438 -7.179688 1.296875 -7.984375 C 1.703125 -8.785156 2.273438 -9.414062 3.015625 -9.875 C 3.753906 -10.332031 4.632812 -10.5625 5.65625 -10.5625 C 6.832031 -10.5625 7.796875 -10.273438 8.546875 -9.703125 C 9.296875 -9.140625 9.773438 -8.347656 9.984375 -7.328125 L 8.59375 -7.328125 C 8.4375 -7.960938 8.113281 -8.472656 7.625 -8.859375 C 7.132812 -9.253906 6.476562 -9.453125 5.65625 -9.453125 C 4.90625 -9.453125 4.253906 -9.28125 3.703125 -8.9375 C 3.148438 -8.601562 2.722656 -8.117188 2.421875 -7.484375 C 2.117188 -6.847656 1.96875 -6.082031 1.96875 -5.1875 C 1.96875 -4.300781 2.117188 -3.535156 2.421875 -2.890625 C 2.722656 -2.253906 3.148438 -1.765625 3.703125 -1.421875 C 4.253906 -1.085938 4.90625 -0.921875 5.65625 -0.921875 C 6.476562 -0.921875 7.132812 -1.109375 7.625 -1.484375 C 8.113281 -1.867188 8.4375 -2.378906 8.59375 -3.015625 L 9.984375 -3.015625 C 9.773438 -2.015625 9.296875 -1.234375 8.546875 -0.671875 C 7.796875 -0.109375 6.832031 0.171875 5.65625 0.171875 Z M 5.65625 0.171875 "/></g></g></g></svg>